0
SECTION
2
HEADER
9
$ACADVER
1
AC1008
9
$UCSORG
10
0.0
20
0.0
30
0.0
9
$UCSXDIR
10
1.0
20
0.0
30
0.0
9
$TILEMODE
70
1
9
$UCSYDIR
10
0.0
20
1.0
30
0.0
9
$EXTMIN
10
-35.262730
20
-25.262762
30
0.000000
9
$EXTMAX
10
35.262726
20
25.262762
30
70.000000
0
ENDSEC
0
SECTION
2
TABLES
0
TABLE
2
LTYPE
70
1
0
LTYPE
2
CONTINUOUS
70
64
3
Solid line
72
65
73
0
40
0.0
0
ENDTAB
0
TABLE
2
LAYER
70
1
0
LAYER
2
TUMB
70
0
62
151
6
CONTINUOUS
0
ENDTAB
0
TABLE
2
STYLE
70
1
0
STYLE
2
STANDARD
70
0
40
0.0
41
1.0
50
0.0
71
0
42
0.2
3
txt
4

0
ENDTAB
0
TABLE
2
UCS
70
0
0
ENDTAB
0
ENDSEC
0
SECTION
2
ENTITIES
0
POLYLINE
8
TUMB
66
1
70
64
71
124
72
206
62
151
0
VERTEX
8
TUMB
10
-31.999996
20
-22.000065
30
0.000000
70
192
0
VERTEX
8
TUMB
10
-32.000004
20
24.000055
30
0.000000
70
192
0
VERTEX
8
TUMB
10
-32.000004
20
24.000055
30
47.000000
70
192
0
VERTEX
8
TUMB
10
-31.999996
20
-22.000065
30
47.000000
70
192
0
VERTEX
8
TUMB
10
-33.999996
20
-22.000067
30
0.000000
70
192
0
VERTEX
8
TUMB
10
-34.000004
20
24.000055
30
0.000000
70
192
0
VERTEX
8
TUMB
10
-34.000004
20
24.000055
30
47.000000
70
192
0
VERTEX
8
TUMB
10
-33.999996
20
-22.000067
30
47.000000
70
192
0
VERTEX
8
TUMB
10
34.000000
20
-22.000023
30
0.000000
70
192
0
VERTEX
8
TUMB
10
34.000000
20
24.000067
30
0.000000
70
192
0
VERTEX
8
TUMB
10
34.000000
20
24.000067
30
47.000000
70
192
0
VERTEX
8
TUMB
10
34.000000
20
-22.000023
30
47.000000
70
192
0
VERTEX
8
TUMB
10
32.000000
20
-22.000027
30
0.000000
70
192
0
VERTEX
8
TUMB
10
32.000000
20
24.000067
30
0.000000
70
192
0
VERTEX
8
TUMB
10
32.000000
20
24.000067
30
47.000000
70
192
0
VERTEX
8
TUMB
10
32.000000
20
-22.000027
30
47.000000
70
192
0
VERTEX
8
TUMB
10
32.000000
20
24.000067
30
47.000000
70
192
0
VERTEX
8
TUMB
10
32.000000
20
24.000067
30
7.000000
70
192
0
VERTEX
8
TUMB
10
-32.000004
20
24.000055
30
7.000000
70
192
0
VERTEX
8
TUMB
10
-32.000004
20
24.000055
30
47.000000
70
192
0
VERTEX
8
TUMB
10
32.000000
20
22.000067
30
47.000000
70
192
0
VERTEX
8
TUMB
10
32.000000
20
22.000067
30
7.000000
70
192
0
VERTEX
8
TUMB
10
-32.000004
20
22.000053
30
7.000000
70
192
0
VERTEX
8
TUMB
10
-32.000004
20
22.000053
30
47.000000
70
192
0
VERTEX
8
TUMB
10
32.000000
20
-22.000027
30
7.000000
70
192
0
VERTEX
8
TUMB
10
32.000000
20
24.000067
30
7.000000
70
192
0
VERTEX
8
TUMB
10
-32.000004
20
24.000055
30
7.000004
70
192
0
VERTEX
8
TUMB
10
-31.999996
20
-22.000065
30
7.000004
70
192
0
VERTEX
8
TUMB
10
32.000000
20
-22.000027
30
5.000000
70
192
0
VERTEX
8
TUMB
10
32.000000
20
24.000067
30
5.000000
70
192
0
VERTEX
8
TUMB
10
-32.000004
20
24.000055
30
5.000004
70
192
0
VERTEX
8
TUMB
10
-31.999996
20
-22.000065
30
5.000004
70
192
0
VERTEX
8
TUMB
10
31.999998
20
-18.000027
30
5.000000
70
192
0
VERTEX
8
TUMB
10
31.999998
20
-18.000027
30
0.000000
70
192
0
VERTEX
8
TUMB
10
-31.999998
20
-18.000034
30
0.000000
70
192
0
VERTEX
8
TUMB
10
-31.999998
20
-18.000065
30
5.000000
70
192
0
VERTEX
8
TUMB
10
31.999998
20
-20.000027
30
5.000000
70
192
0
VERTEX
8
TUMB
10
31.999998
20
-20.000027
30
0.000000
70
192
0
VERTEX
8
TUMB
10
-31.999998
20
-20.000034
30
0.000000
70
192
0
VERTEX
8
TUMB
10
-31.999998
20
-20.000065
30
5.000000
70
192
0
VERTEX
8
TUMB
10
-32.999966
20
-23.000034
30
50.000034
70
192
0
VERTEX
8
TUMB
10
-34.131344
20
-24.131414
30
50.000034
70
192
0
VERTEX
8
TUMB
10
-34.131344
20
-24.131414
30
49.681347
70
192
0
VERTEX
8
TUMB
10
-34.702114
20
-24.702185
30
49.519932
70
192
0
VERTEX
8
TUMB
10
-35.108120
20
-25.108191
30
49.096004
70
192
0
VERTEX
8
TUMB
10
-35.262722
20
-25.262762
30
48.500034
70
192
0
VERTEX
8
TUMB
10
-35.108120
20
-25.108191
30
47.904064
70
192
0
VERTEX
8
TUMB
10
-34.702114
20
-24.702185
30
47.480137
70
192
0
VERTEX
8
TUMB
10
-34.131344
20
-24.131414
30
47.318722
70
192
0
VERTEX
8
TUMB
10
-34.131344
20
-24.131414
30
47.000034
70
192
0
VERTEX
8
TUMB
10
-32.999966
20
-23.000034
30
47.000034
70
192
0
VERTEX
8
TUMB
10
32.999969
20
-23.000023
30
50.000034
70
192
0
VERTEX
8
TUMB
10
34.131348
20
-24.131369
30
50.000034
70
192
0
VERTEX
8
TUMB
10
34.131348
20
-24.131369
30
49.681347
70
192
0
VERTEX
8
TUMB
10
34.702118
20
-24.702171
30
49.519932
70
192
0
VERTEX
8
TUMB
10
35.108124
20
-25.108177
30
49.096004
70
192
0
VERTEX
8
TUMB
10
35.262726
20
-25.262749
30
48.500034
70
192
0
VERTEX
8
TUMB
10
35.108124
20
-25.108177
30
47.904064
70
192
0
VERTEX
8
TUMB
10
34.702118
20
-24.702171
30
47.480137
70
192
0
VERTEX
8
TUMB
10
34.131348
20
-24.131369
30
47.318722
70
192
0
VERTEX
8
TUMB
10
34.131348
20
-24.131399
30
47.000034
70
192
0
VERTEX
8
TUMB
10
32.999969
20
-23.000023
30
47.000034
70
192
0
VERTEX
8
TUMB
10
32.999969
20
23.000036
30
50.000019
70
192
0
VERTEX
8
TUMB
10
34.131348
20
24.131414
30
50.000019
70
192
0
VERTEX
8
TUMB
10
34.131348
20
24.131414
30
49.681332
70
192
0
VERTEX
8
TUMB
10
34.702118
20
24.702185
30
49.519917
70
192
0
VERTEX
8
TUMB
10
35.108124
20
25.108191
30
49.095989
70
192
0
VERTEX
8
TUMB
10
35.262726
20
25.262762
30
48.500019
70
192
0
VERTEX
8
TUMB
10
35.108124
20
25.108191
30
47.904049
70
192
0
VERTEX
8
TUMB
10
34.702118
20
24.702185
30
47.480122
70
192
0
VERTEX
8
TUMB
10
34.131348
20
24.131414
30
47.318707
70
192
0
VERTEX
8
TUMB
10
34.131348
20
24.131414
30
47.000019
70
192
0
VERTEX
8
TUMB
10
32.999969
20
23.000036
30
47.000019
70
192
0
VERTEX
8
TUMB
10
-32.999973
20
23.000025
30
50.000019
70
192
0
VERTEX
8
TUMB
10
-34.131351
20
24.131403
30
50.000019
70
192
0
VERTEX
8
TUMB
10
-34.131351
20
24.131403
30
49.681332
70
192
0
VERTEX
8
TUMB
10
-34.702122
20
24.702173
30
49.519917
70
192
0
VERTEX
8
TUMB
10
-35.108128
20
25.108179
30
49.095989
70
192
0
VERTEX
8
TUMB
10
-35.262730
20
25.262751
30
48.500019
70
192
0
VERTEX
8
TUMB
10
-35.108128
20
25.108179
30
47.904049
70
192
0
VERTEX
8
TUMB
10
-34.702122
20
24.702173
30
47.480122
70
192
0
VERTEX
8
TUMB
10
-34.131351
20
24.131403
30
47.318707
70
192
0
VERTEX
8
TUMB
10
-34.131351
20
24.131403
30
47.000019
70
192
0
VERTEX
8
TUMB
10
-32.999973
20
23.000025
30
47.000019
70
192
0
VERTEX
8
TUMB
10
-33.000004
20
21.877802
30
51.000000
70
192
0
VERTEX
8
TUMB
10
33.000000
20
21.877813
30
51.000000
70
192
0
VERTEX
8
TUMB
10
33.000000
20
21.877813
30
69.000000
70
192
0
VERTEX
8
TUMB
10
-33.000004
20
21.877802
30
69.000000
70
192
0
VERTEX
8
TUMB
10
34.000000
20
22.000067
30
50.000000
70
192
0
VERTEX
8
TUMB
10
34.000000
20
24.000067
30
50.000000
70
192
0
VERTEX
8
TUMB
10
34.000000
20
24.000067
30
70.000000
70
192
0
VERTEX
8
TUMB
10
34.000000
20
22.000067
30
70.000000
70
192
0
VERTEX
8
TUMB
10
-34.000004
20
22.000055
30
50.000000
70
192
0
VERTEX
8
TUMB
10
-34.000004
20
24.000055
30
50.000000
70
192
0
VERTEX
8
TUMB
10
-34.000004
20
24.000055
30
70.000000
70
192
0
VERTEX
8
TUMB
10
-34.000004
20
22.000055
30
70.000000
70
192
0
VERTEX
8
TUMB
10
-33.920322
20
22.000055
30
69.920311
70
192
0
VERTEX
8
TUMB
10
-32.506107
20
22.000055
30
68.506096
70
192
0
VERTEX
8
TUMB
10
-32.713215
20
21.292931
30
68.713203
70
192
0
VERTEX
8
TUMB
10
-33.213215
20
21.000057
30
69.213203
70
192
0
VERTEX
8
TUMB
10
-33.713215
20
21.292933
30
69.713203
70
192
0
VERTEX
8
TUMB
10
33.920288
20
22.000067
30
69.920311
70
192
0
VERTEX
8
TUMB
10
32.506104
20
22.000067
30
68.506096
70
192
0
VERTEX
8
TUMB
10
32.713196
20
21.292946
30
68.713203
70
192
0
VERTEX
8
TUMB
10
33.213196
20
21.000067
30
69.213203
70
192
0
VERTEX
8
TUMB
10
33.713196
20
21.292944
30
69.713203
70
192
0
VERTEX
8
TUMB
10
33.920288
20
22.000067
30
50.079689
70
192
0
VERTEX
8
TUMB
10
32.506104
20
22.000067
30
51.493904
70
192
0
VERTEX
8
TUMB
10
32.713196
20
21.292946
30
51.286797
70
192
0
VERTEX
8
TUMB
10
33.213196
20
21.000067
30
50.786797
70
192
0
VERTEX
8
TUMB
10
33.713196
20
21.292944
30
50.286797
70
192
0
VERTEX
8
TUMB
10
-33.920322
20
22.000055
30
50.079689
70
192
0
VERTEX
8
TUMB
10
-32.506107
20
22.000055
30
51.493904
70
192
0
VERTEX
8
TUMB
10
-32.713215
20
21.292931
30
51.286797
70
192
0
VERTEX
8
TUMB
10
-33.213215
20
21.000057
30
50.786797
70
192
0
VERTEX
8
TUMB
10
-33.713215
20
21.292933
30
50.286797
70
192
0
VERTEX
8
TUMB
10
-32.784973
20
-22.785036
30
50.000034
70
192
0
VERTEX
8
TUMB
10
-32.784973
20
-22.785036
30
47.000034
70
192
0
VERTEX
8
TUMB
10
32.784966
20
-22.785025
30
50.000034
70
192
0
VERTEX
8
TUMB
10
32.784966
20
-22.785025
30
47.000034
70
192
0
VERTEX
8
TUMB
10
32.784966
20
22.785038
30
50.000019
70
192
0
VERTEX
8
TUMB
10
32.784966
20
22.785038
30
47.000019
70
192
0
VERTEX
8
TUMB
10
-32.784981
20
22.785027
30
50.000019
70
192
0
VERTEX
8
TUMB
10
-32.784981
20
22.785027
30
47.000019
70
192
0
VERTEX
8
TUMB
10
0
20
0
30
0
70
128
71
1
72
2
73
-3
0
VERTEX
8
TUMB
10
0
20
0
30
0
70
128
71
-1
72
3
73
4
0
VERTEX
8
TUMB
10
0
20
0
30
0
70
128
71
1
72
5
73
-6
0
VERTEX
8
TUMB
10
0
20
0
30
0
70
128
71
-1
72
6
73
2
0
VERTEX
8
TUMB
10
0
20
0
30
0
70
128
71
2
72
6
73
-7
0
VERTEX
8
TUMB
10
0
20
0
30
0
70
128
71
-2
72
7
73
3
0
VERTEX
8
TUMB
10
0
20
0
30
0
70
128
71
3
72
7
73
-8
0
VERTEX
8
TUMB
10
0
20
0
30
0
70
128
71
-3
72
8
73
4
0
VERTEX
8
TUMB
10
0
20
0
30
0
70
128
71
4
72
8
73
-5
0
VERTEX
8
TUMB
10
0
20
0
30
0
70
128
71
-4
72
5
73
1
0
VERTEX
8
TUMB
10
0
20
0
30
0
70
128
71
5
72
8
73
-7
0
VERTEX
8
TUMB
10
0
20
0
30
0
70
128
71
-5
72
7
73
6
0
VERTEX
8
TUMB
10
0
20
0
30
0
70
128
71
9
72
10
73
-11
0
VERTEX
8
TUMB
10
0
20
0
30
0
70
128
71
-9
72
11
73
12
0
VERTEX
8
TUMB
10
0
20
0
30
0
70
128
71
9
72
13
73
-14
0
VERTEX
8
TUMB
10
0
20
0
30
0
70
128
71
-9
72
14
73
10
0
VERTEX
8
TUMB
10
0
20
0
30
0
70
128
71
10
72
14
73
-15
0
VERTEX
8
TUMB
10
0
20
0
30
0
70
128
71
-10
72
15
73
11
0
VERTEX
8
TUMB
10
0
20
0
30
0
70
128
71
11
72
15
73
-16
0
VERTEX
8
TUMB
10
0
20
0
30
0
70
128
71
-11
72
16
73
12
0
VERTEX
8
TUMB
10
0
20
0
30
0
70
128
71
12
72
16
73
-13
0
VERTEX
8
TUMB
10
0
20
0
30
0
70
128
71
-12
72
13
73
9
0
VERTEX
8
TUMB
10
0
20
0
30
0
70
128
71
13
72
16
73
-15
0
VERTEX
8
TUMB
10
0
20
0
30
0
70
128
71
-13
72
15
73
14
0
VERTEX
8
TUMB
10
0
20
0
30
0
70
128
71
17
72
18
73
-19
0
VERTEX
8
TUMB
10
0
20
0
30
0
70
128
71
-17
72
19
73
20
0
VERTEX
8
TUMB
10
0
20
0
30
0
70
128
71
17
72
21
73
-22
0
VERTEX
8
TUMB
10
0
20
0
30
0
70
128
71
-17
72
22
73
18
0
VERTEX
8
TUMB
10
0
20
0
30
0
70
128
71
18
72
22
73
-23
0
VERTEX
8
TUMB
10
0
20
0
30
0
70
128
71
-18
72
23
73
19
0
VERTEX
8
TUMB
10
0
20
0
30
0
70
128
71
19
72
23
73
-24
0
VERTEX
8
TUMB
10
0
20
0
30
0
70
128
71
-19
72
24
73
20
0
VERTEX
8
TUMB
10
0
20
0
30
0
70
128
71
20
72
24
73
-21
0
VERTEX
8
TUMB
10
0
20
0
30
0
70
128
71
-20
72
21
73
17
0
VERTEX
8
TUMB
10
0
20
0
30
0
70
128
71
21
72
24
73
-23
0
VERTEX
8
TUMB
10
0
20
0
30
0
70
128
71
-21
72
23
73
22
0
VERTEX
8
TUMB
10
0
20
0
30
0
70
128
71
25
72
26
73
-27
0
VERTEX
8
TUMB
10
0
20
0
30
0
70
128
71
-25
72
27
73
28
0
VERTEX
8
TUMB
10
0
20
0
30
0
70
128
71
25
72
29
73
-30
0
VERTEX
8
TUMB
10
0
20
0
30
0
70
128
71
-25
72
30
73
26
0
VERTEX
8
TUMB
10
0
20
0
30
0
70
128
71
26
72
30
73
-31
0
VERTEX
8
TUMB
10
0
20
0
30
0
70
128
71
-26
72
31
73
27
0
VERTEX
8
TUMB
10
0
20
0
30
0
70
128
71
27
72
31
73
-32
0
VERTEX
8
TUMB
10
0
20
0
30
0
70
128
71
-27
72
32
73
28
0
VERTEX
8
TUMB
10
0
20
0
30
0
70
128
71
28
72
32
73
-29
0
VERTEX
8
TUMB
10
0
20
0
30
0
70
128
71
-28
72
29
73
25
0
VERTEX
8
TUMB
10
0
20
0
30
0
70
128
71
29
72
32
73
-31
0
VERTEX
8
TUMB
10
0
20
0
30
0
70
128
71
-29
72
31
73
30
0
VERTEX
8
TUMB
10
0
20
0
30
0
70
128
71
33
72
34
73
-35
0
VERTEX
8
TUMB
10
0
20
0
30
0
70
128
71
-33
72
35
73
36
0
VERTEX
8
TUMB
10
0
20
0
30
0
70
128
71
33
72
37
73
-38
0
VERTEX
8
TUMB
10
0
20
0
30
0
70
128
71
-33
72
38
73
34
0
VERTEX
8
TUMB
10
0
20
0
30
0
70
128
71
34
72
38
73
-39
0
VERTEX
8
TUMB
10
0
20
0
30
0
70
128
71
-34
72
39
73
35
0
VERTEX
8
TUMB
10
0
20
0
30
0
70
128
71
35
72
39
73
-40
0
VERTEX
8
TUMB
10
0
20
0
30
0
70
128
71
-35
72
40
73
36
0
VERTEX
8
TUMB
10
0
20
0
30
0
70
128
71
36
72
40
73
-37
0
VERTEX
8
TUMB
10
0
20
0
30
0
70
128
71
-36
72
37
73
33
0
VERTEX
8
TUMB
10
0
20
0
30
0
70
128
71
37
72
40
73
-39
0
VERTEX
8
TUMB
10
0
20
0
30
0
70
128
71
-37
72
39
73
38
0
VERTEX
8
TUMB
10
0
20
0
30
0
70
128
71
41
72
42
73
-53
0
VERTEX
8
TUMB
10
0
20
0
30
0
70
128
71
-41
72
53
73
52
0
VERTEX
8
TUMB
10
0
20
0
30
0
70
128
71
42
72
43
73
-54
0
VERTEX
8
TUMB
10
0
20
0
30
0
70
128
71
-42
72
54
73
53
0
VERTEX
8
TUMB
10
0
20
0
30
0
70
128
71
43
72
44
73
-55
0
VERTEX
8
TUMB
10
0
20
0
30
0
70
128
71
-43
72
55
73
54
0
VERTEX
8
TUMB
10
0
20
0
30
0
70
128
71
44
72
45
73
-56
0
VERTEX
8
TUMB
10
0
20
0
30
0
70
128
71
-44
72
56
73
55
0
VERTEX
8
TUMB
10
0
20
0
30
0
70
128
71
45
72
46
73
-57
0
VERTEX
8
TUMB
10
0
20
0
30
0
70
128
71
-45
72
57
73
56
0
VERTEX
8
TUMB
10
0
20
0
30
0
70
128
71
46
72
47
73
-58
0
VERTEX
8
TUMB
10
0
20
0
30
0
70
128
71
-46
72
58
73
57
0
VERTEX
8
TUMB
10
0
20
0
30
0
70
128
71
47
72
48
73
-59
0
VERTEX
8
TUMB
10
0
20
0
30
0
70
128
71
-47
72
59
73
58
0
VERTEX
8
TUMB
10
0
20
0
30
0
70
128
71
48
72
49
73
-60
0
VERTEX
8
TUMB
10
0
20
0
30
0
70
128
71
-48
72
60
73
59
0
VERTEX
8
TUMB
10
0
20
0
30
0
70
128
71
49
72
50
73
-61
0
VERTEX
8
TUMB
10
0
20
0
30
0
70
128
71
-49
72
61
73
60
0
VERTEX
8
TUMB
10
0
20
0
30
0
70
128
71
50
72
51
73
-62
0
VERTEX
8
TUMB
10
0
20
0
30
0
70
128
71
-50
72
62
73
61
0
VERTEX
8
TUMB
10
0
20
0
30
0
70
128
71
51
72
41
73
-52
0
VERTEX
8
TUMB
10
0
20
0
30
0
70
128
71
-51
72
52
73
62
0
VERTEX
8
TUMB
10
0
20
0
30
0
70
128
71
52
72
53
73
-64
0
VERTEX
8
TUMB
10
0
20
0
30
0
70
128
71
-52
72
64
73
63
0
VERTEX
8
TUMB
10
0
20
0
30
0
70
128
71
53
72
54
73
-65
0
VERTEX
8
TUMB
10
0
20
0
30
0
70
128
71
-53
72
65
73
64
0
VERTEX
8
TUMB
10
0
20
0
30
0
70
128
71
54
72
55
73
-66
0
VERTEX
8
TUMB
10
0
20
0
30
0
70
128
71
-54
72
66
73
65
0
VERTEX
8
TUMB
10
0
20
0
30
0
70
128
71
55
72
56
73
-67
0
VERTEX
8
TUMB
10
0
20
0
30
0
70
128
71
-55
72
67
73
66
0
VERTEX
8
TUMB
10
0
20
0
30
0
70
128
71
56
72
57
73
-68
0
VERTEX
8
TUMB
10
0
20
0
30
0
70
128
71
-56
72
68
73
67
0
VERTEX
8
TUMB
10
0
20
0
30
0
70
128
71
57
72
58
73
-69
0
VERTEX
8
TUMB
10
0
20
0
30
0
70
128
71
-57
72
69
73
68
0
VERTEX
8
TUMB
10
0
20
0
30
0
70
128
71
58
72
59
73
-70
0
VERTEX
8
TUMB
10
0
20
0
30
0
70
128
71
-58
72
70
73
69
0
VERTEX
8
TUMB
10
0
20
0
30
0
70
128
71
59
72
60
73
-71
0
VERTEX
8
TUMB
10
0
20
0
30
0
70
128
71
-59
72
71
73
70
0
VERTEX
8
TUMB
10
0
20
0
30
0
70
128
71
60
72
61
73
-72
0
VERTEX
8
TUMB
10
0
20
0
30
0
70
128
71
-60
72
72
73
71
0
VERTEX
8
TUMB
10
0
20
0
30
0
70
128
71
61
72
62
73
-73
0
VERTEX
8
TUMB
10
0
20
0
30
0
70
128
71
-61
72
73
73
72
0
VERTEX
8
TUMB
10
0
20
0
30
0
70
128
71
62
72
52
73
-63
0
VERTEX
8
TUMB
10
0
20
0
30
0
70
128
71
-62
72
63
73
73
0
VERTEX
8
TUMB
10
0
20
0
30
0
70
128
71
63
72
64
73
-75
0
VERTEX
8
TUMB
10
0
20
0
30
0
70
128
71
-63
72
75
73
74
0
VERTEX
8
TUMB
10
0
20
0
30
0
70
128
71
64
72
65
73
-76
0
VERTEX
8
TUMB
10
0
20
0
30
0
70
128
71
-64
72
76
73
75
0
VERTEX
8
TUMB
10
0
20
0
30
0
70
128
71
65
72
66
73
-77
0
VERTEX
8
TUMB
10
0
20
0
30
0
70
128
71
-65
72
77
73
76
0
VERTEX
8
TUMB
10
0
20
0
30
0
70
128
71
66
72
67
73
-78
0
VERTEX
8
TUMB
10
0
20
0
30
0
70
128
71
-66
72
78
73
77
0
VERTEX
8
TUMB
10
0
20
0
30
0
70
128
71
67
72
68
73
-79
0
VERTEX
8
TUMB
10
0
20
0
30
0
70
128
71
-67
72
79
73
78
0
VERTEX
8
TUMB
10
0
20
0
30
0
70
128
71
68
72
69
73
-80
0
VERTEX
8
TUMB
10
0
20
0
30
0
70
128
71
-68
72
80
73
79
0
VERTEX
8
TUMB
10
0
20
0
30
0
70
128
71
69
72
70
73
-81
0
VERTEX
8
TUMB
10
0
20
0
30
0
70
128
71
-69
72
81
73
80
0
VERTEX
8
TUMB
10
0
20
0
30
0
70
128
71
70
72
71
73
-82
0
VERTEX
8
TUMB
10
0
20
0
30
0
70
128
71
-70
72
82
73
81
0
VERTEX
8
TUMB
10
0
20
0
30
0
70
128
71
71
72
72
73
-83
0
VERTEX
8
TUMB
10
0
20
0
30
0
70
128
71
-71
72
83
73
82
0
VERTEX
8
TUMB
10
0
20
0
30
0
70
128
71
72
72
73
73
-84
0
VERTEX
8
TUMB
10
0
20
0
30
0
70
128
71
-72
72
84
73
83
0
VERTEX
8
TUMB
10
0
20
0
30
0
70
128
71
73
72
63
73
-74
0
VERTEX
8
TUMB
10
0
20
0
30
0
70
128
71
-73
72
74
73
84
0
VERTEX
8
TUMB
10
0
20
0
30
0
70
128
71
74
72
75
73
-42
0
VERTEX
8
TUMB
10
0
20
0
30
0
70
128
71
-74
72
42
73
41
0
VERTEX
8
TUMB
10
0
20
0
30
0
70
128
71
75
72
76
73
-43
0
VERTEX
8
TUMB
10
0
20
0
30
0
70
128
71
-75
72
43
73
42
0
VERTEX
8
TUMB
10
0
20
0
30
0
70
128
71
76
72
77
73
-44
0
VERTEX
8
TUMB
10
0
20
0
30
0
70
128
71
-76
72
44
73
43
0
VERTEX
8
TUMB
10
0
20
0
30
0
70
128
71
77
72
78
73
-45
0
VERTEX
8
TUMB
10
0
20
0
30
0
70
128
71
-77
72
45
73
44
0
VERTEX
8
TUMB
10
0
20
0
30
0
70
128
71
78
72
79
73
-46
0
VERTEX
8
TUMB
10
0
20
0
30
0
70
128
71
-78
72
46
73
45
0
VERTEX
8
TUMB
10
0
20
0
30
0
70
128
71
79
72
80
73
-47
0
VERTEX
8
TUMB
10
0
20
0
30
0
70
128
71
-79
72
47
73
46
0
VERTEX
8
TUMB
10
0
20
0
30
0
70
128
71
80
72
81
73
-48
0
VERTEX
8
TUMB
10
0
20
0
30
0
70
128
71
-80
72
48
73
47
0
VERTEX
8
TUMB
10
0
20
0
30
0
70
128
71
81
72
82
73
-49
0
VERTEX
8
TUMB
10
0
20
0
30
0
70
128
71
-81
72
49
73
48
0
VERTEX
8
TUMB
10
0
20
0
30
0
70
128
71
82
72
83
73
-50
0
VERTEX
8
TUMB
10
0
20
0
30
0
70
128
71
-82
72
50
73
49
0
VERTEX
8
TUMB
10
0
20
0
30
0
70
128
71
83
72
84
73
-51
0
VERTEX
8
TUMB
10
0
20
0
30
0
70
128
71
-83
72
51
73
50
0
VERTEX
8
TUMB
10
0
20
0
30
0
70
128
71
84
72
74
73
-41
0
VERTEX
8
TUMB
10
0
20
0
30
0
70
128
71
-84
72
41
73
51
0
VERTEX
8
TUMB
10
0
20
0
30
0
70
128
71
85
72
86
73
-87
0
VERTEX
8
TUMB
10
0
20
0
30
0
70
128
71
-85
72
87
73
88
0
VERTEX
8
TUMB
10
0
20
0
30
0
70
128
71
89
72
90
73
-91
0
VERTEX
8
TUMB
10
0
20
0
30
0
70
128
71
-89
72
91
73
92
0
VERTEX
8
TUMB
10
0
20
0
30
0
70
128
71
89
72
93
73
-94
0
VERTEX
8
TUMB
10
0
20
0
30
0
70
128
71
-89
72
94
73
90
0
VERTEX
8
TUMB
10
0
20
0
30
0
70
128
71
90
72
94
73
-95
0
VERTEX
8
TUMB
10
0
20
0
30
0
70
128
71
-90
72
95
73
91
0
VERTEX
8
TUMB
10
0
20
0
30
0
70
128
71
91
72
95
73
-96
0
VERTEX
8
TUMB
10
0
20
0
30
0
70
128
71
-91
72
96
73
92
0
VERTEX
8
TUMB
10
0
20
0
30
0
70
128
71
92
72
96
73
-93
0
VERTEX
8
TUMB
10
0
20
0
30
0
70
128
71
-92
72
93
73
89
0
VERTEX
8
TUMB
10
0
20
0
30
0
70
128
71
93
72
96
73
-95
0
VERTEX
8
TUMB
10
0
20
0
30
0
70
128
71
-93
72
95
73
94
0
VERTEX
8
TUMB
10
0
20
0
30
0
70
128
71
-98
72
104
73
99
0
VERTEX
8
TUMB
10
0
20
0
30
0
70
128
71
98
72
103
73
-104
0
VERTEX
8
TUMB
10
0
20
0
30
0
70
128
71
-99
72
105
73
100
0
VERTEX
8
TUMB
10
0
20
0
30
0
70
128
71
99
72
104
73
-105
0
VERTEX
8
TUMB
10
0
20
0
30
0
70
128
71
-100
72
106
73
101
0
VERTEX
8
TUMB
10
0
20
0
30
0
70
128
71
100
72
105
73
-106
0
VERTEX
8
TUMB
10
0
20
0
30
0
70
128
71
-101
72
102
73
97
0
VERTEX
8
TUMB
10
0
20
0
30
0
70
128
71
101
72
106
73
-102
0
VERTEX
8
TUMB
10
0
20
0
30
0
70
128
71
-103
72
109
73
104
0
VERTEX
8
TUMB
10
0
20
0
30
0
70
128
71
103
72
108
73
-109
0
VERTEX
8
TUMB
10
0
20
0
30
0
70
128
71
-104
72
110
73
105
0
VERTEX
8
TUMB
10
0
20
0
30
0
70
128
71
104
72
109
73
-110
0
VERTEX
8
TUMB
10
0
20
0
30
0
70
128
71
-105
72
111
73
106
0
VERTEX
8
TUMB
10
0
20
0
30
0
70
128
71
105
72
110
73
-111
0
VERTEX
8
TUMB
10
0
20
0
30
0
70
128
71
-106
72
107
73
102
0
VERTEX
8
TUMB
10
0
20
0
30
0
70
128
71
106
72
111
73
-107
0
VERTEX
8
TUMB
10
0
20
0
30
0
70
128
71
-108
72
114
73
109
0
VERTEX
8
TUMB
10
0
20
0
30
0
70
128
71
108
72
113
73
-114
0
VERTEX
8
TUMB
10
0
20
0
30
0
70
128
71
-109
72
115
73
110
0
VERTEX
8
TUMB
10
0
20
0
30
0
70
128
71
109
72
114
73
-115
0
VERTEX
8
TUMB
10
0
20
0
30
0
70
128
71
-110
72
116
73
111
0
VERTEX
8
TUMB
10
0
20
0
30
0
70
128
71
110
72
115
73
-116
0
VERTEX
8
TUMB
10
0
20
0
30
0
70
128
71
-111
72
112
73
107
0
VERTEX
8
TUMB
10
0
20
0
30
0
70
128
71
111
72
116
73
-112
0
VERTEX
8
TUMB
10
0
20
0
30
0
70
128
71
-113
72
99
73
114
0
VERTEX
8
TUMB
10
0
20
0
30
0
70
128
71
113
72
98
73
-99
0
VERTEX
8
TUMB
10
0
20
0
30
0
70
128
71
-114
72
100
73
115
0
VERTEX
8
TUMB
10
0
20
0
30
0
70
128
71
114
72
99
73
-100
0
VERTEX
8
TUMB
10
0
20
0
30
0
70
128
71
-115
72
101
73
116
0
VERTEX
8
TUMB
10
0
20
0
30
0
70
128
71
115
72
100
73
-101
0
VERTEX
8
TUMB
10
0
20
0
30
0
70
128
71
-116
72
97
73
112
0
VERTEX
8
TUMB
10
0
20
0
30
0
70
128
71
116
72
101
73
-97
0
VERTEX
8
TUMB
10
0
20
0
30
0
70
128
71
119
72
117
73
-118
0
VERTEX
8
TUMB
10
0
20
0
30
0
70
128
71
120
72
-119
73
118
0
VERTEX
8
TUMB
10
0
20
0
30
0
70
128
71
121
72
119
73
-120
0
VERTEX
8
TUMB
10
0
20
0
30
0
70
128
71
122
72
-121
73
120
0
VERTEX
8
TUMB
10
0
20
0
30
0
70
128
71
123
72
121
73
-122
0
VERTEX
8
TUMB
10
0
20
0
30
0
70
128
71
124
72
-123
73
122
0
VERTEX
8
TUMB
10
0
20
0
30
0
70
128
71
117
72
123
73
-124
0
VERTEX
8
TUMB
10
0
20
0
30
0
70
128
71
118
72
-117
73
124
0
VERTEX
8
TUMB
10
0
20
0
30
0
70
128
71
117
72
119
73
-121
0
VERTEX
8
TUMB
10
0
20
0
30
0
70
128
71
121
72
123
73
-117
0
VERTEX
8
TUMB
10
0
20
0
30
0
70
128
71
122
72
-120
73
124
0
VERTEX
8
TUMB
10
0
20
0
30
0
70
128
71
118
72
-124
73
120
0
SEQEND
8
TUMB
0
ENDSEC
0
EOF
